<svg width="507.96875px" height="131.6px" xmlns="http://www.w3.org/2000/svg" viewBox="-3.984375 9.200000000000003 507.96875 131.6" style="background: rgb(34, 39, 46);" preserveAspectRatio="xMidYMid"><defs><filter id="editing-extrusion" x="-100%" y="-100%" width="300%" height="300%"><feFlood result="color1" flood-color="#444444"></feFlood><feConvolveMatrix order="6,6" divisor="1" kernelMatrix="1 0 0 0 0 0 0 1 0 0 0 0 0 0 1 0 0 0 0 0 0 1 0 0 0 0 0 0 1 0 0 0 0 0 0 1" in="SourceAlpha" result="extrude"></feConvolveMatrix><feComposite in="color1" in2="extrude" result="comp-extrude" operator="in"></feComposite><feOffset dx="3" dy="3" in="comp-extrude" result="offset-extrude"></feOffset><feMerge><feMergeNode in="offset-extrude"></feMergeNode><feMergeNode in="SourceGraphic"></feMergeNode></feMerge></filter></defs><g filter="url(#editing-extrusion)"><g transform="translate(69.99999237060547, 100.65500068664551)"><path d="M27.06-14.56L40.69-46.06L48.31-46.06L48.31 0L40.69 0L40.69-31.69L30.38-6.06L23.75-6.06L13.38-31.69L13.38 0L5.75 0L5.75-46.06L13.38-46.06L27.06-14.56ZM85-19.06L85-10.94L85-10.44L85-10.44Q85-9.94 85.06-8.97L85.06-8.97L85.06-8.97Q85.13-8 85.31-7L85.31-7L85.31-7Q85.50-6 85.91-5.19L85.91-5.19L85.91-5.19Q86.31-4.38 87-4.13L87-4.13L85 0.06L85 0.06Q84.19 0.06 83.28-0.31L83.28-0.31L83.28-0.31Q82.38-0.69 81.53-1.38L81.53-1.38L81.53-1.38Q80.69-2.06 80.09-2.91L80.09-2.91L80.09-2.91Q79.50-3.75 79.19-4.75L79.19-4.75L79.19-4.75Q78.75-3.69 77.66-2.78L77.66-2.78L77.66-2.78Q76.56-1.88 75.19-1.16L75.19-1.16L75.19-1.16Q73.81-0.44 72.22-0.06L72.22-0.06L72.22-0.06Q70.63 0.31 69.25 0.31L69.25 0.31L69.25 0.31Q67.13 0.31 65.16-0.25L65.16-0.25L65.16-0.25Q63.19-0.81 61.69-2.06L61.69-2.06L61.69-2.06Q60.19-3.31 59.34-5.38L59.34-5.38L59.34-5.38Q58.50-7.44 58.50-10.44L58.50-10.44L58.50-10.44Q58.50-13.31 59.72-15.41L59.72-15.41L59.72-15.41Q60.94-17.50 62.84-18.84L62.84-18.84L62.84-18.84Q64.75-20.19 67.19-20.84L67.19-20.84L67.19-20.84Q69.63-21.50 72.13-21.50L72.13-21.50L77.44-21.50L77.44-21.50Q77.44-24.56 77.13-26.38L77.13-26.38L77.13-26.38Q76.81-28.19 76.06-29.03L76.06-29.03L76.06-29.03Q75.31-29.88 74.22-30.09L74.22-30.09L74.22-30.09Q73.13-30.31 71.63-30.31L71.63-30.31L71.63-30.31Q70.25-30.31 69.03-29.97L69.03-29.97L69.03-29.97Q67.81-29.63 66.78-29.16L66.78-29.16L66.78-29.16Q65.75-28.69 64.97-28.13L64.97-28.13L64.97-28.13Q64.19-27.56 63.81-27.25L63.81-27.25L61-31.56L61-31.56Q61.63-32.25 62.88-32.97L62.88-32.97L62.88-32.97Q64.13-33.69 65.75-34.25L65.75-34.25L65.75-34.25Q67.38-34.81 69.28-35.16L69.28-35.16L69.28-35.16Q71.19-35.50 73.25-35.50L73.25-35.50L73.25-35.50Q75.13-35.50 76.91-35.13L76.91-35.13L76.91-35.13Q78.69-34.75 80.16-33.88L80.16-33.88L80.16-33.88Q81.63-33 82.72-31.53L82.72-31.53L82.72-31.53Q83.81-30.06 84.25-27.88L84.25-27.88L84.25-27.88Q84.69-25.69 84.84-23.47L84.84-23.47L84.84-23.47Q85-21.25 85-19.06L85-19.06ZM77.50-8.44L77.50-17.06L73.50-17.06L73.50-17.06Q72.25-17.06 70.88-16.81L70.88-16.81L70.88-16.81Q69.50-16.56 68.31-15.88L68.31-15.88L68.31-15.88Q67.13-15.19 66.34-13.91L66.34-13.91L66.34-13.91Q65.56-12.63 65.56-10.63L65.56-10.63L65.56-10.63Q65.56-7.50 66.97-6.13L66.97-6.13L66.97-6.13Q68.38-4.75 71.06-4.75L71.06-4.75L71.06-4.75Q72.94-4.75 74.66-5.75L74.66-5.75L74.66-5.75Q76.38-6.75 77.50-8.44L77.50-8.44ZM126.13-1.25L126.13 0L118.50 0L118.50-19.19L118.50-19.19Q118.50-21.31 118.31-23.25L118.31-23.25L118.31-23.25Q118.13-25.19 117.44-26.69L117.44-26.69L117.44-26.69Q116.75-28.19 115.56-29.03L115.56-29.03L115.56-29.03Q114.38-29.88 112.25-29.88L112.25-29.88L112.25-29.88Q111.56-29.88 110.47-29.69L110.47-29.69L110.47-29.69Q109.38-29.50 108.22-29.13L108.22-29.13L108.22-29.13Q107.06-28.75 106.03-28.19L106.03-28.19L106.03-28.19Q105-27.63 104.50-26.88L104.50-26.88L104.50-26.50L104.50-26.38L104.50-12.50L104.50-12.38L104.50 0L96.94 0L96.94-48.56L104.50-48.56L104.50-31.69L104.50-31.69Q105.25-32.38 106.41-33.09L106.41-33.09L106.41-33.09Q107.56-33.81 108.94-34.38L108.94-34.38L108.94-34.38Q110.31-34.94 111.75-35.28L111.75-35.28L111.75-35.28Q113.19-35.63 114.56-35.63L114.56-35.63L114.56-35.63Q117.38-35.63 119.31-34.44L119.31-34.44L119.31-34.44Q121.25-33.25 123.19-31.38L123.19-31.38L123.19-31.38Q124.25-30.31 124.84-28.91L124.84-28.91L124.84-28.91Q125.44-27.50 125.72-25.97L125.72-25.97L125.72-25.97Q126-24.44 126.06-22.88L126.06-22.88L126.06-22.88Q126.13-21.31 126.13-19.81L126.13-19.81L126.13-1.25ZM137.38-3.56L137.38-3.56L137.38-3.56Q135-6.25 133.88-10.19L133.88-10.19L133.88-10.19Q132.75-14.13 132.75-18.13L132.75-18.13L132.75-18.13Q132.75-23 134.09-26.31L134.09-26.31L134.09-26.31Q135.44-29.63 137.56-31.69L137.56-31.69L137.56-31.69Q139.69-33.75 142.28-34.66L142.28-34.66L142.28-34.66Q144.88-35.56 147.38-35.56L147.38-35.56L147.38-35.56Q150.44-35.56 152.97-34.50L152.97-34.50L152.97-34.50Q155.50-33.44 156.75-31.69L156.75-31.69L156.75-48.56L164.38-48.56L164.38 0L157.19 0L157.19 0Q157.06-1.06 156.97-2.16L156.97-2.16L156.97-2.16Q156.88-3.25 156.75-4.19L156.75-4.19L156.75-4.19Q156.56-3.38 155.66-2.56L155.66-2.56L155.66-2.56Q154.75-1.75 153.34-1.09L153.34-1.09L153.34-1.09Q151.94-0.44 150.19-0.06L150.19-0.06L150.19-0.06Q148.44 0.31 146.56 0.31L146.56 0.31L146.56 0.31Q144.06 0.31 141.66-0.56L141.66-0.56L141.66-0.56Q139.25-1.44 137.38-3.56ZM140.75-17.56L140.75-17.56L140.75-17.56Q140.75-15.06 141.38-12.91L141.38-12.91L141.38-12.91Q142-10.75 143.06-9.13L143.06-9.13L143.06-9.13Q144.13-7.50 145.66-6.56L145.66-6.56L145.66-6.56Q147.19-5.63 149-5.63L149-5.63L149-5.63Q150.94-5.63 152.47-6.59L152.47-6.59L152.47-6.59Q154-7.56 155.06-9.19L155.06-9.19L155.06-9.19Q156.13-10.81 156.69-13L156.69-13L156.69-13Q157.25-15.19 157.25-17.69L157.25-17.69L157.25-17.69Q157.25-20.19 156.66-22.38L156.66-22.38L156.66-22.38Q156.06-24.56 154.97-26.19L154.97-26.19L154.97-26.19Q153.88-27.81 152.34-28.78L152.34-28.78L152.34-28.78Q150.81-29.75 148.88-29.75L148.88-29.75L148.88-29.75Q146.94-29.75 145.44-28.78L145.44-28.78L145.44-28.78Q143.94-27.81 142.91-26.13L142.91-26.13L142.91-26.13Q141.88-24.44 141.31-22.25L141.31-22.25L141.31-22.25Q140.75-20.06 140.75-17.56ZM182.63-35.25L182.63 0L175 0L175-35.25L182.63-35.25ZM183.31-46.50L183.31-46.50L183.31-46.50Q183.31-44.63 182-43.34L182-43.34L182-43.34Q180.69-42.06 178.81-42.06L178.81-42.06L178.81-42.06Q176.94-42.06 175.66-43.38L175.66-43.38L175.66-43.38Q174.38-44.69 174.38-46.50L174.38-46.50L174.38-46.50Q174.38-48.38 175.69-49.69L175.69-49.69L175.69-49.69Q177-51 178.81-51L178.81-51L178.81-51Q180.69-51 182-49.69L182-49.69L182-49.69Q183.31-48.38 183.31-46.50ZM209.88-46.06L240.50-46.06L240.50-40L218.56-7.06L217.31-6.06L240.50-6.06L240.50 0L209.88 0L209.88-6.06L231.81-39L233.13-40L209.88-40L209.88-46.06ZM276.25-19.06L276.25-10.94L276.25-10.44L276.25-10.44Q276.25-9.94 276.31-8.97L276.31-8.97L276.31-8.97Q276.38-8 276.56-7L276.56-7L276.56-7Q276.75-6 277.16-5.19L277.16-5.19L277.16-5.19Q277.56-4.38 278.25-4.13L278.25-4.13L276.25 0.06L276.25 0.06Q275.44 0.06 274.53-0.31L274.53-0.31L274.53-0.31Q273.63-0.69 272.78-1.38L272.78-1.38L272.78-1.38Q271.94-2.06 271.34-2.91L271.34-2.91L271.34-2.91Q270.75-3.75 270.44-4.75L270.44-4.75L270.44-4.75Q270-3.69 268.91-2.78L268.91-2.78L268.91-2.78Q267.81-1.88 266.44-1.16L266.44-1.16L266.44-1.16Q265.06-0.44 263.47-0.06L263.47-0.06L263.47-0.06Q261.88 0.31 260.50 0.31L260.50 0.31L260.50 0.31Q258.38 0.31 256.41-0.25L256.41-0.25L256.41-0.25Q254.44-0.81 252.94-2.06L252.94-2.06L252.94-2.06Q251.44-3.31 250.59-5.38L250.59-5.38L250.59-5.38Q249.75-7.44 249.75-10.44L249.75-10.44L249.75-10.44Q249.75-13.31 250.97-15.41L250.97-15.41L250.97-15.41Q252.19-17.50 254.09-18.84L254.09-18.84L254.09-18.84Q256-20.19 258.44-20.84L258.44-20.84L258.44-20.84Q260.88-21.50 263.38-21.50L263.38-21.50L268.69-21.50L268.69-21.50Q268.69-24.56 268.38-26.38L268.38-26.38L268.38-26.38Q268.06-28.19 267.31-29.03L267.31-29.03L267.31-29.03Q266.56-29.88 265.47-30.09L265.47-30.09L265.47-30.09Q264.38-30.31 262.88-30.31L262.88-30.31L262.88-30.31Q261.50-30.31 260.28-29.97L260.28-29.97L260.28-29.97Q259.06-29.63 258.03-29.16L258.03-29.16L258.03-29.16Q257-28.69 256.22-28.13L256.22-28.13L256.22-28.13Q255.44-27.56 255.06-27.25L255.06-27.25L252.25-31.56L252.25-31.56Q252.88-32.25 254.13-32.97L254.13-32.97L254.13-32.97Q255.38-33.69 257-34.25L257-34.25L257-34.25Q258.63-34.81 260.53-35.16L260.53-35.16L260.53-35.16Q262.44-35.50 264.50-35.50L264.50-35.50L264.50-35.50Q266.38-35.50 268.16-35.13L268.16-35.13L268.16-35.13Q269.94-34.75 271.41-33.88L271.41-33.88L271.41-33.88Q272.88-33 273.97-31.53L273.97-31.53L273.97-31.53Q275.06-30.06 275.50-27.88L275.50-27.88L275.50-27.88Q275.94-25.69 276.09-23.47L276.09-23.47L276.09-23.47Q276.25-21.25 276.25-19.06L276.25-19.06ZM268.75-8.44L268.75-17.06L264.75-17.06L264.75-17.06Q263.50-17.06 262.13-16.81L262.13-16.81L262.13-16.81Q260.75-16.56 259.56-15.88L259.56-15.88L259.56-15.88Q258.38-15.19 257.59-13.91L257.59-13.91L257.59-13.91Q256.81-12.63 256.81-10.63L256.81-10.63L256.81-10.63Q256.81-7.50 258.22-6.13L258.22-6.13L258.22-6.13Q259.63-4.75 262.31-4.75L262.31-4.75L262.31-4.75Q264.19-4.75 265.91-5.75L265.91-5.75L265.91-5.75Q267.63-6.75 268.75-8.44L268.75-8.44ZM295.75-35.25L295.75 0L288.13 0L288.13-35.25L295.75-35.25ZM296.44-46.50L296.44-46.50L296.44-46.50Q296.44-44.63 295.13-43.34L295.13-43.34L295.13-43.34Q293.81-42.06 291.94-42.06L291.94-42.06L291.94-42.06Q290.06-42.06 288.78-43.38L288.78-43.38L288.78-43.38Q287.50-44.69 287.50-46.50L287.50-46.50L287.50-46.50Q287.50-48.38 288.81-49.69L288.81-49.69L288.81-49.69Q290.13-51 291.94-51L291.94-51L291.94-51Q293.81-51 295.13-49.69L295.13-49.69L295.13-49.69Q296.44-48.38 296.44-46.50ZM335.56-1.25L335.56 0L327.94 0L327.94-19.19L327.94-19.19Q327.94-21.31 327.75-23.25L327.75-23.25L327.75-23.25Q327.56-25.19 326.88-26.69L326.88-26.69L326.88-26.69Q326.19-28.19 325-29.03L325-29.03L325-29.03Q323.81-29.88 321.69-29.88L321.69-29.88L321.69-29.88Q321-29.88 319.91-29.69L319.91-29.69L319.91-29.69Q318.81-29.50 317.66-29.13L317.66-29.13L317.66-29.13Q316.50-28.75 315.47-28.19L315.47-28.19L315.47-28.19Q314.44-27.63 313.94-26.88L313.94-26.88L313.94-26.50L313.94-26.38L313.94-12.50L313.94-12.38L313.94 0L306.38 0L306.38-35.25L313.13-35.25L313.94-31.69L313.94-31.69Q314.69-32.38 315.84-33.09L315.84-33.09L315.84-33.09Q317-33.81 318.38-34.38L318.38-34.38L318.38-34.38Q319.75-34.94 321.19-35.28L321.19-35.28L321.19-35.28Q322.63-35.63 324-35.63L324-35.63L324-35.63Q326.81-35.63 328.75-34.44L328.75-34.44L328.75-34.44Q330.69-33.25 332.63-31.38L332.63-31.38L332.63-31.38Q333.69-30.31 334.28-28.91L334.28-28.91L334.28-28.91Q334.88-27.50 335.16-25.97L335.16-25.97L335.16-25.97Q335.44-24.44 335.50-22.88L335.50-22.88L335.50-22.88Q335.56-21.31 335.56-19.81L335.56-19.81L335.56-1.25ZM353.56-35.25L353.56 0L345.94 0L345.94-35.25L353.56-35.25ZM354.25-46.50L354.25-46.50L354.25-46.50Q354.25-44.63 352.94-43.34L352.94-43.34L352.94-43.34Q351.63-42.06 349.75-42.06L349.75-42.06L349.75-42.06Q347.88-42.06 346.59-43.38L346.59-43.38L346.59-43.38Q345.31-44.69 345.31-46.50L345.31-46.50L345.31-46.50Q345.31-48.38 346.63-49.69L346.63-49.69L346.63-49.69Q347.94-51 349.75-51L349.75-51L349.75-51Q351.63-51 352.94-49.69L352.94-49.69L352.94-49.69Q354.25-48.38 354.25-46.50Z" fill="#ccc"></path></g></g><style>text {
  font-size: 64px;
  font-family: Arial Black;
  dominant-baseline: central;
  text-anchor: middle;
}</style></svg>