<svg width="360.609423828125px" height="122px" xmlns="http://www.w3.org/2000/svg" viewBox="69.6952880859375 14 360.609423828125 122" style="background: rgba(147, 219, 233, 0);" preserveAspectRatio="xMidYMid"><defs><filter id="editing-hover" x="-100%" y="-100%" width="300%" height="300%"><feFlood flood-color="#5e6fa3" result="flood"></feFlood><feComposite operator="in" in2="SourceAlpha" in="flood" result="shadow"></feComposite><feOffset dx="-1.9" dy="-1.3" in="SourceGraphic" result="offset-1"></feOffset><feOffset dx="1.9" dy="1.3" in="shadow" result="offset-2"></feOffset><feMerge><feMergeNode in="offset-2"></feMergeNode><feMergeNode in="offset-1"></feMergeNode></feMerge></filter></defs><g filter="url(#editing-hover)"><g transform="translate(126.32474339008331, 99)"><path d="M6.53 0L-0.83 0L10.75-42.24L24.13-42.24L27.07-18.11L38.98-42.24L50.18-42.24L51.33-10.62L51.33-10.62Q51.58-4.35 54.66-2.43L54.66-2.43L54.66-2.43Q53.95-1.15 51.90 0.06L51.90 0.06L51.90 0.06Q49.86 1.28 47.14 1.28L47.14 1.28L47.14 1.28Q44.42 1.28 42.82 0.51L42.82 0.51L42.82 0.51Q41.22-0.26 40.32-1.54L40.32-1.54L40.32-1.54Q38.72-3.84 38.72-8.26L38.72-8.26L38.72-28.03L26.11 0L18.18 0L13.70-28.74L6.53 0ZM60.19-1.92L60.19-1.92L60.19-1.92Q58.69-3.58 58.02-6.21L58.02-6.21L58.02-6.21Q57.34-8.83 57.34-13.12L57.34-13.12L57.34-13.12Q57.34-17.41 58.82-21.31L58.82-21.31L58.82-21.31Q60.29-25.22 62.98-28.03L62.98-28.03L62.98-28.03Q68.48-33.92 77.57-33.92L77.57-33.92L77.57-33.92Q80.83-33.92 83.20-32.83L83.20-32.83L94.14-33.92L89.41-8.96L89.41-8.96Q89.22-8.19 89.22-6.78L89.22-6.78L89.22-6.78Q89.22-5.38 90.08-4.48L90.08-4.48L90.08-4.48Q90.94-3.58 92.22-3.46L92.22-3.46L92.22-3.46Q91.58-1.28 89.25 0L89.25 0L89.25 0Q86.91 1.28 84.29 1.28L84.29 1.28L84.29 1.28Q81.66 1.28 79.90 0.29L79.90 0.29L79.90 0.29Q78.14-0.70 77.63-2.37L77.63-2.37L77.63-2.37Q76.61-0.77 74.43 0.26L74.43 0.26L74.43 0.26Q72.26 1.28 69.34 1.28L69.34 1.28L69.34 1.28Q66.43 1.28 64.06 0.51L64.06 0.51L64.06 0.51Q61.70-0.26 60.19-1.92ZM73.70-27.90L73.70-27.90L73.70-27.90Q72.96-26.75 72.32-24.80L72.32-24.80L72.32-24.80Q71.68-22.85 70.62-17.63L70.62-17.63L70.62-17.63Q69.57-12.42 69.57-8.70L69.57-8.70L69.57-8.70Q69.57-4.99 70.14-3.90L70.14-3.90L70.14-3.90Q70.72-2.82 71.74-2.82L71.74-2.82L71.74-2.82Q73.79-2.82 75.30-4.77L75.30-4.77L75.30-4.77Q76.80-6.72 77.38-10.18L77.38-10.18L80.77-28.93L80.77-28.93Q79.42-30.08 77.86-30.08L77.86-30.08L77.86-30.08Q76.29-30.08 75.36-29.57L75.36-29.57L75.36-29.57Q74.43-29.06 73.70-27.90ZM129.79-7.10L129.79-7.10L129.79-7.10Q129.79-4.29 132.67-3.46L132.67-3.46L132.67-3.46Q131.97-1.09 129.22 0.19L129.22 0.19L129.22 0.19Q126.91 1.28 124.38 1.28L124.38 1.28L124.38 1.28Q121.86 1.28 120.54 0.61L120.54 0.61L120.54 0.61Q119.23-0.06 118.53-1.15L118.53-1.15L118.53-1.15Q117.38-2.82 117.38-5.95L117.38-5.95L117.38-5.95Q117.38-7.81 118.40-12.93L118.40-12.93L119.30-17.79L119.30-17.79Q120.38-23.36 120.38-25.41L120.38-25.41L120.38-25.41Q120.38-28.99 118.40-28.99L118.40-28.99L118.40-28.99Q115.90-28.99 114.30-25.34L114.30-25.34L114.30-25.34Q113.66-23.94 113.22-21.82L113.22-21.82L108.86 0L96 1.28L105.02-44.80L117.89-46.08L117.38-43.52L117.38-43.52Q115.58-33.66 114.05-30.34L114.05-30.34L114.05-30.34Q117.63-33.92 124.22-33.92L124.22-33.92L124.22-33.92Q131.20-33.92 132.48-29.31L132.48-29.31L132.48-29.31Q132.93-27.84 132.93-26.56L132.93-26.56L132.93-26.56Q132.93-25.28 132.83-24.29L132.83-24.29L132.83-24.29Q132.74-23.30 132.42-21.50L132.42-21.50L131.58-16.90L130.11-9.66L130.11-9.66Q129.79-8.19 129.79-7.10ZM158.02-33.92L158.02-33.92L158.02-33.92Q160.32-33.92 162.11-33.41L162.11-33.41L162.11-33.41Q162.18-33.66 162.30-34.37L162.30-34.37L162.62-36.35L162.62-36.35Q162.88-37.63 163.26-39.74L163.26-39.74L164.29-44.80L177.02-46.08L169.92-8.96L169.92-8.96Q169.86-8.58 169.86-7.94L169.86-7.94L169.86-6.91L169.86-6.91Q169.86-5.50 170.56-4.45L170.56-4.45L170.56-4.45Q171.26-3.39 172.42-3.39L172.42-3.39L172.42-3.39Q171.14-0.38 167.23 0.90L167.23 0.90L167.23 0.90Q165.89 1.28 164 1.28L164 1.28L164 1.28Q162.11 1.28 160.38 0.29L160.38 0.29L160.38 0.29Q158.66-0.70 158.14-2.37L158.14-2.37L158.14-2.37Q157.12-0.70 155.07 0.29L155.07 0.29L155.07 0.29Q153.02 1.28 150.05 1.28L150.05 1.28L150.05 1.28Q147.07 1.28 144.61 0.51L144.61 0.51L144.61 0.51Q142.14-0.26 140.61-1.92L140.61-1.92L140.61-1.92Q137.79-5.18 137.79-12.61L137.79-12.61L137.79-12.61Q137.79-22.21 143.42-28.03L143.42-28.03L143.42-28.03Q149.06-33.92 158.02-33.92ZM157.57-30.08L157.57-30.08L157.57-30.08Q155.20-30.08 153.92-27.52L153.92-27.52L153.92-27.52Q152.64-24.96 151.33-18.62L151.33-18.62L151.33-18.62Q150.02-12.29 150.02-6.59L150.02-6.59L150.02-6.59Q150.02-2.69 152.32-2.69L152.32-2.69L152.32-2.69Q154.37-2.69 155.81-4.74L155.81-4.74L155.81-4.74Q157.25-6.78 157.82-10.18L157.82-10.18L161.28-28.93L161.28-28.93Q159.94-30.08 157.57-30.08ZM193.22-3.52L193.22-3.52L193.22-3.52Q191.23 1.28 184.90 1.28L184.90 1.28L184.90 1.28Q181.63 1.28 179.58-0.96L179.58-0.96L179.58-0.96Q177.86-2.94 177.86-4.93L177.86-4.93L177.86-4.93Q177.86-10.11 180.22-20.22L180.22-20.22L182.59-32.64L195.58-33.92L191.68-13.70L191.68-13.70Q190.59-8.96 190.59-7.30L190.59-7.30L190.59-7.30Q190.59-3.65 193.22-3.52ZM183.74-41.54L183.74-41.54L183.74-41.54Q183.74-44.03 185.82-45.38L185.82-45.38L185.82-45.38Q187.90-46.72 190.91-46.72L190.91-46.72L190.91-46.72Q193.92-46.72 195.74-45.38L195.74-45.38L195.74-45.38Q197.57-44.03 197.57-41.54L197.57-41.54L197.57-41.54Q197.57-39.04 195.55-37.76L195.55-37.76L195.55-37.76Q193.54-36.48 190.53-36.48L190.53-36.48L190.53-36.48Q187.52-36.48 185.63-37.76L185.63-37.76L185.63-37.76Q183.74-39.04 183.74-41.54ZM225.38 0.16L225.38 0.16L225.38 0.16Q221.95-0.45 220.16-0.70L220.16-0.70L220.16-0.70Q218.37-0.96 216.48-0.96L216.48-0.96L216.48-0.96Q214.59-0.96 213.63 0L213.63 0L213.63 0Q212.16-1.09 211.39-4.54L211.39-4.54L211.39-4.54Q211.14-5.50 211.14-7.10L211.14-7.10L211.14-7.10Q211.14-10.56 215.10-13.95L215.10-13.95L235.07-30.34L235.07-30.34Q226.82-31.68 223.49-31.68L223.49-31.68L223.49-31.68Q220.16-31.68 217.09-30.21L217.09-30.21L217.09-30.21Q215.36-33.02 215.36-36.29L215.36-36.29L215.36-36.29Q215.36-39.55 217.76-41.22L217.76-41.22L217.76-41.22Q220.16-42.88 224.19-42.88L224.19-42.88L224.19-42.88Q225.98-42.88 227.90-42.62L227.90-42.62L227.90-42.62Q229.82-42.37 231.74-42.11L231.74-42.11L235.52-41.54L235.52-41.54Q237.38-41.28 239.78-41.28L239.78-41.28L239.78-41.28Q242.18-41.28 244.86-41.92L244.86-41.92L244.86-41.92Q247.42-39.68 247.42-35.97L247.42-35.97L247.42-35.97Q247.42-31.49 244.35-29.06L244.35-29.06L222.59-11.65L222.59-11.65Q227.26-10.37 235.01-10.37L235.01-10.37L235.01-10.37Q238.85-10.37 241.28-12.29L241.28-12.29L241.28-12.29Q242.37-10.88 242.66-9.70L242.66-9.70L242.66-9.70Q242.94-8.51 242.94-6.82L242.94-6.82L242.94-6.82Q242.94-5.12 242.37-3.74L242.37-3.74L242.37-3.74Q241.79-2.37 240.58-1.34L240.58-1.34L240.58-1.34Q238.14 0.77 232.77 0.77L232.77 0.77L232.77 0.77Q228.80 0.77 225.38 0.16Z" fill="#689cc5"></path></g></g><style>text {
  font-size: 64px;
  font-family: Arial Black;
  dominant-baseline: central;
  text-anchor: middle;
}</style></svg>