<svg width="464.592236328125px" height="153.2px" xmlns="http://www.w3.org/2000/svg" viewBox="17.703881835937494 -1.5999999999999943 464.592236328125 153.2" style="background: rgba(240, 61, 50, 0);" preserveAspectRatio="xMidYMid"><defs><filter id="editing-hover" x="-100%" y="-100%" width="300%" height="300%"><feFlood flood-color="#000000" result="flood"></feFlood><feComposite operator="in" in2="SourceAlpha" in="flood" result="shadow"></feComposite><feOffset dx="-1.9" dy="-1.3" in="SourceGraphic" result="offset-1"></feOffset><feOffset dx="1.9" dy="1.3" in="shadow" result="offset-2"></feOffset><feMerge><feMergeNode in="offset-2"></feMergeNode><feMergeNode in="offset-1"></feMergeNode></feMerge></filter></defs><g filter="url(#editing-hover)"><g transform="translate(87.31737887859344, 106.5)"><path d="M8.57 0L-1.09 0L14.11-55.44L31.67-55.44L35.53-23.77L51.16-55.44L65.86-55.44L67.37-13.94L67.37-13.94Q67.70-5.71 71.74-3.19L71.74-3.19L71.74-3.19Q70.81-1.51 68.12 0.08L68.12 0.08L68.12 0.08Q65.44 1.68 61.87 1.68L61.87 1.68L61.87 1.68Q58.30 1.68 56.20 0.67L56.20 0.67L56.20 0.67Q54.10-0.34 52.92-2.02L52.92-2.02L52.92-2.02Q50.82-5.04 50.82-10.84L50.82-10.84L50.82-36.79L34.27 0L23.86 0L17.98-37.72L8.57 0ZM79.00-2.52L79.00-2.52L79.00-2.52Q77.03-4.70 76.15-8.15L76.15-8.15L76.15-8.15Q75.26-11.59 75.26-17.22L75.26-17.22L75.26-17.22Q75.26-22.85 77.20-27.97L77.20-27.97L77.20-27.97Q79.13-33.10 82.66-36.79L82.66-36.79L82.66-36.79Q89.88-44.52 101.81-44.52L101.81-44.52L101.81-44.52Q106.09-44.52 109.20-43.09L109.20-43.09L123.56-44.52L117.35-11.76L117.35-11.76Q117.10-10.75 117.10-8.90L117.10-8.90L117.10-8.90Q117.10-7.06 118.23-5.88L118.23-5.88L118.23-5.88Q119.36-4.70 121.04-4.54L121.04-4.54L121.04-4.54Q120.20-1.68 117.14 0L117.14 0L117.14 0Q114.07 1.68 110.63 1.68L110.63 1.68L110.63 1.68Q107.18 1.68 104.87 0.38L104.87 0.38L104.87 0.38Q102.56-0.92 101.89-3.11L101.89-3.11L101.89-3.11Q100.55-1.01 97.69 0.34L97.69 0.34L97.69 0.34Q94.84 1.68 91.01 1.68L91.01 1.68L91.01 1.68Q87.19 1.68 84.08 0.67L84.08 0.67L84.08 0.67Q80.98-0.34 79.00-2.52ZM96.73-36.62L96.73-36.62L96.73-36.62Q95.76-35.11 94.92-32.55L94.92-32.55L94.92-32.55Q94.08-29.99 92.69-23.14L92.69-23.14L92.69-23.14Q91.31-16.30 91.31-11.42L91.31-11.42L91.31-11.42Q91.31-6.55 92.06-5.12L92.06-5.12L92.06-5.12Q92.82-3.70 94.16-3.70L94.16-3.70L94.16-3.70Q96.85-3.70 98.83-6.26L98.83-6.26L98.83-6.26Q100.80-8.82 101.56-13.36L101.56-13.36L106.01-37.97L106.01-37.97Q104.24-39.48 102.19-39.48L102.19-39.48L102.19-39.48Q100.13-39.48 98.91-38.81L98.91-38.81L98.91-38.81Q97.69-38.14 96.73-36.62ZM170.35-9.32L170.35-9.32L170.35-9.32Q170.35-5.63 174.13-4.54L174.13-4.54L174.13-4.54Q173.21-1.43 169.60 0.25L169.60 0.25L169.60 0.25Q166.57 1.68 163.25 1.68L163.25 1.68L163.25 1.68Q159.94 1.68 158.21 0.80L158.21 0.80L158.21 0.80Q156.49-0.08 155.57-1.51L155.57-1.51L155.57-1.51Q154.06-3.70 154.06-7.81L154.06-7.81L154.06-7.81Q154.06-10.25 155.40-16.97L155.40-16.97L156.58-23.35L156.58-23.35Q158.00-30.66 158.00-33.35L158.00-33.35L158.00-33.35Q158.00-38.05 155.40-38.05L155.40-38.05L155.40-38.05Q152.12-38.05 150.02-33.26L150.02-33.26L150.02-33.26Q149.18-31.42 148.60-28.64L148.60-28.64L142.88 0L126 1.68L137.84-58.80L154.73-60.48L154.06-57.12L154.06-57.12Q151.70-44.18 149.69-39.82L149.69-39.82L149.69-39.82Q154.39-44.52 163.04-44.52L163.04-44.52L163.04-44.52Q172.20-44.52 173.88-38.47L173.88-38.47L173.88-38.47Q174.47-36.54 174.47-34.86L174.47-34.86L174.47-34.86Q174.47-33.18 174.34-31.88L174.34-31.88L174.34-31.88Q174.22-30.58 173.80-28.22L173.80-28.22L172.70-22.18L170.77-12.68L170.77-12.68Q170.35-10.75 170.35-9.32ZM207.40-44.52L207.40-44.52L207.40-44.52Q210.42-44.52 212.77-43.85L212.77-43.85L212.77-43.85Q212.86-44.18 213.02-45.11L213.02-45.11L213.44-47.71L213.44-47.71Q213.78-49.39 214.28-52.16L214.28-52.16L215.63-58.80L232.34-60.48L223.02-11.76L223.02-11.76Q222.94-11.26 222.94-10.42L222.94-10.42L222.94-9.07L222.94-9.07Q222.94-7.22 223.86-5.84L223.86-5.84L223.86-5.84Q224.78-4.45 226.30-4.45L226.30-4.45L226.30-4.45Q224.62-0.50 219.49 1.18L219.49 1.18L219.49 1.18Q217.73 1.68 215.25 1.68L215.25 1.68L215.25 1.68Q212.77 1.68 210.50 0.38L210.50 0.38L210.50 0.38Q208.24-0.92 207.56-3.11L207.56-3.11L207.56-3.11Q206.22-0.92 203.53 0.38L203.53 0.38L203.53 0.38Q200.84 1.68 196.94 1.68L196.94 1.68L196.94 1.68Q193.03 1.68 189.80 0.67L189.80 0.67L189.80 0.67Q186.56-0.34 184.55-2.52L184.55-2.52L184.55-2.52Q180.85-6.80 180.85-16.55L180.85-16.55L180.85-16.55Q180.85-29.15 188.24-36.79L188.24-36.79L188.24-36.79Q195.64-44.52 207.40-44.52ZM206.81-39.48L206.81-39.48L206.81-39.48Q203.70-39.48 202.02-36.12L202.02-36.12L202.02-36.12Q200.34-32.76 198.62-24.44L198.62-24.44L198.62-24.44Q196.90-16.13 196.90-8.65L196.90-8.65L196.90-8.65Q196.90-3.53 199.92-3.53L199.92-3.53L199.92-3.53Q202.61-3.53 204.50-6.22L204.50-6.22L204.50-6.22Q206.39-8.90 207.14-13.36L207.14-13.36L211.68-37.97L211.68-37.97Q209.92-39.48 206.81-39.48ZM253.60-4.62L253.60-4.62L253.60-4.62Q250.99 1.68 242.68 1.68L242.68 1.68L242.68 1.68Q238.39 1.68 235.70-1.26L235.70-1.26L235.70-1.26Q233.44-3.86 233.44-6.47L233.44-6.47L233.44-6.47Q233.44-13.27 236.54-26.54L236.54-26.54L239.65-42.84L256.70-44.52L251.58-17.98L251.58-17.98Q250.15-11.76 250.15-9.58L250.15-9.58L250.15-9.58Q250.15-4.79 253.60-4.62ZM241.16-54.52L241.16-54.52L241.16-54.52Q241.16-57.79 243.89-59.56L243.89-59.56L243.89-59.56Q246.62-61.32 250.57-61.32L250.57-61.32L250.57-61.32Q254.52-61.32 256.91-59.56L256.91-59.56L256.91-59.56Q259.31-57.79 259.31-54.52L259.31-54.52L259.31-54.52Q259.31-51.24 256.66-49.56L256.66-49.56L256.66-49.56Q254.02-47.88 250.07-47.88L250.07-47.88L250.07-47.88Q246.12-47.88 243.64-49.56L243.64-49.56L243.64-49.56Q241.16-51.24 241.16-54.52ZM295.81 0.21L295.81 0.21L295.81 0.21Q291.31-0.59 288.96-0.92L288.96-0.92L288.96-0.92Q286.61-1.26 284.13-1.26L284.13-1.26L284.13-1.26Q281.65-1.26 280.39 0L280.39 0L280.39 0Q278.46-1.43 277.45-5.96L277.45-5.96L277.45-5.96Q277.12-7.22 277.12-9.32L277.12-9.32L277.12-9.32Q277.12-13.86 282.32-18.31L282.32-18.31L308.53-39.82L308.53-39.82Q297.70-41.58 293.33-41.58L293.33-41.58L293.33-41.58Q288.96-41.58 284.93-39.65L284.93-39.65L284.93-39.65Q282.66-43.34 282.66-47.63L282.66-47.63L282.66-47.63Q282.66-51.91 285.81-54.10L285.81-54.10L285.81-54.10Q288.96-56.28 294.25-56.28L294.25-56.28L294.25-56.28Q296.60-56.28 299.12-55.94L299.12-55.94L299.12-55.94Q301.64-55.61 304.16-55.27L304.16-55.27L309.12-54.52L309.12-54.52Q311.56-54.18 314.71-54.18L314.71-54.18L314.71-54.18Q317.86-54.18 321.38-55.02L321.38-55.02L321.38-55.02Q324.74-52.08 324.74-47.21L324.74-47.21L324.74-47.21Q324.74-41.33 320.71-38.14L320.71-38.14L292.15-15.29L292.15-15.29Q298.28-13.61 308.45-13.61L308.45-13.61L308.45-13.61Q313.49-13.61 316.68-16.13L316.68-16.13L316.68-16.13Q318.11-14.28 318.49-12.73L318.49-12.73L318.49-12.73Q318.86-11.17 318.86-8.95L318.86-8.95L318.86-8.95Q318.86-6.72 318.11-4.91L318.11-4.91L318.11-4.91Q317.35-3.11 315.76-1.76L315.76-1.76L315.76-1.76Q312.56 1.01 305.51 1.01L305.51 1.01L305.51 1.01Q300.30 1.01 295.81 0.21Z" fill="#ffffff"></path></g></g><style>text {
  font-size: 64px;
  font-family: Arial Black;
  dominant-baseline: central;
  text-anchor: middle;
}</style></svg>
